<svg width="512" height="512" viewBox="0 0 512 512" fill="none" xmlns="http://www.w3.org/2000/svg">
  <defs>
    <linearGradient id="grad1" x1="0%" y1="0%" x2="100%" y2="100%">
      <stop offset="0%" style="stop-color:#9333ea;stop-opacity:1" />
      <stop offset="100%" style="stop-color:#dc2626;stop-opacity:1" />
    </linearGradient>
  </defs>
  <rect width="512" height="512" rx="100" fill="url(#grad1)"/>
  
  <!-- Film strip icon -->
  <rect x="100" y="130" width="312" height="252" rx="20" fill="white" opacity="0.9"/>
  
  <!-- Film holes on left -->
  <rect x="120" y="155" width="24" height="24" rx="6" fill="url(#grad1)"/>
  <rect x="120" y="210" width="24" height="24" rx="6" fill="url(#grad1)"/>
  <rect x="120" y="265" width="24" height="24" rx="6" fill="url(#grad1)"/>
  <rect x="120" y="320" width="24" height="24" rx="6" fill="url(#grad1)"/>
  
  <!-- Film holes on right -->
  <rect x="368" y="155" width="24" height="24" rx="6" fill="url(#grad1)"/>
  <rect x="368" y="210" width="24" height="24" rx="6" fill="url(#grad1)"/>
  <rect x="368" y="265" width="24" height="24" rx="6" fill="url(#grad1)"/>
  <rect x="368" y="320" width="24" height="24" rx="6" fill="url(#grad1)"/>
  
  <!-- Play button -->
  <circle cx="256" cy="256" r="64" fill="url(#grad1)"/>
  <path d="M236 220 L300 256 L236 292 Z" fill="white"/>
</svg>
