<svg width="192" height="192" viewBox="0 0 192 192" fill="none" xmlns="http://www.w3.org/2000/svg">
  <defs>
    <linearGradient id="grad1" x1="0%" y1="0%" x2="100%" y2="100%">
      <stop offset="0%" style="stop-color:#9333ea;stop-opacity:1" />
      <stop offset="100%" style="stop-color:#dc2626;stop-opacity:1" />
    </linearGradient>
  </defs>
  <rect width="192" height="192" rx="40" fill="url(#grad1)"/>
  
  <!-- Film strip icon -->
  <rect x="40" y="50" width="112" height="92" rx="8" fill="white" opacity="0.9"/>
  
  <!-- Film holes on left -->
  <rect x="48" y="60" width="8" height="8" rx="2" fill="url(#grad1)"/>
  <rect x="48" y="80" width="8" height="8" rx="2" fill="url(#grad1)"/>
  <rect x="48" y="100" width="8" height="8" rx="2" fill="url(#grad1)"/>
  <rect x="48" y="120" width="8" height="8" rx="2" fill="url(#grad1)"/>
  
  <!-- Film holes on right -->
  <rect x="136" y="60" width="8" height="8" rx="2" fill="url(#grad1)"/>
  <rect x="136" y="80" width="8" height="8" rx="2" fill="url(#grad1)"/>
  <rect x="136" y="100" width="8" height="8" rx="2" fill="url(#grad1)"/>
  <rect x="136" y="120" width="8" height="8" rx="2" fill="url(#grad1)"/>
  
  <!-- Play button -->
  <circle cx="96" cy="96" r="24" fill="url(#grad1)"/>
  <path d="M88 84 L110 96 L88 108 Z" fill="white"/>
</svg>
